<svg width="296" height="198" viewBox="0 0 296 198" fill="none" xmlns="http://www.w3.org/2000/svg">
<g clip-path="url(#clip0_21_300)">
<path d="M140.433 89.0587H146.041V103.426C146.034 104.79 145.689 105.991 145.007 107.028C144.332 108.058 143.397 108.863 142.203 109.443C141.016 110.016 139.648 110.303 138.1 110.303C136.756 110.303 135.528 110.071 134.416 109.607C133.304 109.136 132.417 108.399 131.755 107.397C131.093 106.387 130.766 105.077 130.773 103.467H136.463C136.483 103.992 136.572 104.436 136.729 104.797C136.892 105.159 137.118 105.432 137.404 105.616C137.697 105.793 138.052 105.882 138.468 105.882C138.891 105.882 139.246 105.79 139.533 105.606C139.826 105.422 140.048 105.149 140.198 104.787C140.348 104.419 140.426 103.965 140.433 103.426V89.0587ZM160.164 103.14V94.298H165.813V110.016H160.451V107.028H160.287C159.946 108.031 159.349 108.816 158.496 109.382C157.643 109.941 156.63 110.221 155.457 110.221C154.358 110.221 153.397 109.968 152.571 109.464C151.752 108.959 151.115 108.263 150.658 107.376C150.207 106.489 149.979 105.473 149.972 104.327V94.298H155.621V103.14C155.627 103.917 155.825 104.528 156.214 104.971C156.61 105.415 157.162 105.637 157.872 105.637C158.343 105.637 158.748 105.538 159.09 105.34C159.438 105.135 159.704 104.849 159.888 104.48C160.079 104.105 160.171 103.658 160.164 103.14ZM169.838 115.911V94.298H175.446V97.0406H175.569C175.774 96.5084 176.074 96.0206 176.47 95.5773C176.865 95.1269 177.357 94.7687 177.943 94.5028C178.53 94.2298 179.212 94.0934 179.99 94.0934C181.027 94.0934 182.013 94.3697 182.947 94.9223C183.889 95.4749 184.653 96.3447 185.239 97.5317C185.833 98.7188 186.13 100.261 186.13 102.157C186.13 103.972 185.847 105.476 185.281 106.67C184.721 107.864 183.971 108.754 183.029 109.341C182.094 109.928 181.068 110.221 179.949 110.221C179.212 110.221 178.554 110.102 177.974 109.863C177.401 109.617 176.91 109.286 176.5 108.87C176.098 108.447 175.787 107.97 175.569 107.438H175.487V115.911H169.838ZM175.364 102.157C175.364 102.921 175.463 103.583 175.661 104.142C175.866 104.695 176.152 105.125 176.521 105.432C176.896 105.732 177.343 105.882 177.861 105.882C178.38 105.882 178.82 105.735 179.181 105.442C179.55 105.142 179.83 104.715 180.021 104.163C180.218 103.604 180.317 102.935 180.317 102.157C180.317 101.379 180.218 100.714 180.021 100.162C179.83 99.6024 179.55 99.1758 179.181 98.8825C178.82 98.5824 178.38 98.4323 177.861 98.4323C177.343 98.4323 176.896 98.5824 176.521 98.8825C176.152 99.1758 175.866 99.6024 175.661 100.162C175.463 100.714 175.364 101.379 175.364 102.157ZM189.649 110.016V94.298H195.298V110.016H189.649ZM192.473 92.6607C191.709 92.6607 191.054 92.4083 190.509 91.9035C189.963 91.3987 189.69 90.7915 189.69 90.082C189.69 89.3725 189.963 88.7654 190.509 88.2604C191.054 87.7556 191.709 87.5032 192.473 87.5032C193.244 87.5032 193.899 87.7556 194.438 88.2604C194.984 88.7654 195.257 89.3725 195.257 90.082C195.257 90.7915 194.984 91.3987 194.438 91.9035C193.899 92.4083 193.244 92.6607 192.473 92.6607ZM208.702 94.298V98.3914H198.346V94.298H208.702ZM200.352 90.5323H206.001V104.961C206.001 105.179 206.038 105.364 206.112 105.514C206.188 105.657 206.304 105.766 206.461 105.841C206.618 105.909 206.819 105.944 207.065 105.944C207.236 105.944 207.434 105.923 207.659 105.882C207.891 105.841 208.06 105.807 208.171 105.78L208.989 109.75C208.736 109.825 208.374 109.917 207.904 110.027C207.44 110.136 206.888 110.207 206.246 110.241C204.95 110.31 203.862 110.177 202.981 109.842C202.102 109.501 201.44 108.966 200.996 108.236C200.553 107.506 200.338 106.592 200.352 105.493V90.5323ZM219.522 110.303C217.844 110.303 216.399 109.982 215.184 109.341C213.976 108.693 213.044 107.765 212.39 106.557C211.742 105.343 211.418 103.89 211.418 102.198C211.418 100.574 211.745 99.1555 212.4 97.9411C213.055 96.7267 213.979 95.7819 215.174 95.1065C216.367 94.4311 217.777 94.0934 219.4 94.0934C220.586 94.0934 221.661 94.2776 222.624 94.6459C223.585 95.0144 224.407 95.5499 225.09 96.2526C225.771 96.9485 226.297 97.7944 226.666 98.7904C227.033 99.7864 227.218 100.909 227.218 102.157V103.467H213.178V100.356H222.02C222.012 99.9058 221.896 99.5102 221.671 99.1691C221.453 98.8212 221.156 98.5517 220.781 98.3606C220.412 98.1628 219.993 98.0639 219.522 98.0639C219.066 98.0639 218.646 98.1628 218.263 98.3606C217.882 98.5517 217.574 98.8178 217.342 99.1589C217.118 99.5 216.998 99.8991 216.985 100.356V103.713C216.985 104.218 217.091 104.668 217.302 105.063C217.513 105.459 217.817 105.77 218.213 105.995C218.609 106.22 219.086 106.332 219.646 106.332C220.034 106.332 220.389 106.278 220.71 106.169C221.037 106.059 221.317 105.903 221.549 105.698C221.78 105.486 221.951 105.234 222.06 104.941H227.218C227.041 106.032 226.621 106.981 225.959 107.785C225.298 108.584 224.422 109.204 223.329 109.648C222.244 110.085 220.976 110.303 219.522 110.303ZM230.675 110.016V94.298H236.16V97.2861H236.324C236.611 96.181 237.065 95.3726 237.686 94.8608C238.312 94.3492 239.046 94.0934 239.885 94.0934C240.131 94.0934 240.373 94.1139 240.612 94.1548C240.857 94.1889 241.094 94.2401 241.318 94.3083V99.1281C241.039 99.0327 240.693 98.961 240.284 98.9132C239.875 98.8656 239.524 98.8416 239.231 98.8416C238.678 98.8416 238.18 98.9678 237.736 99.2202C237.3 99.4659 236.955 99.8138 236.704 100.264C236.451 100.707 236.324 101.229 236.324 101.83V110.016H230.675Z" fill="white"/>
<mask id="mask0_21_300" style="mask-type:luminance" maskUnits="userSpaceOnUse" x="53" y="65" width="68" height="69">
<path d="M120.152 65.8807H53V133.032H120.152V65.8807Z" fill="white"/>
</mask>
<g mask="url(#mask0_21_300)">
<path d="M59.2899 118.11C62.041 121.936 65.5698 125.138 69.6451 127.505C73.7203 129.872 78.2498 131.351 82.9367 131.845C80.5254 128.216 77.0203 124.878 72.6445 122.337C68.2688 119.795 63.6348 118.407 59.2899 118.11Z" fill="white"/>
<path d="M78.5239 112.216C70.0937 107.319 60.9691 106.071 54.4402 108.276C55.0705 110.359 55.9018 112.376 56.9222 114.298C62.5947 114.167 68.7881 115.707 74.5511 119.054C80.3141 122.402 84.7218 127.021 87.4192 132.015C89.5956 131.948 91.7608 131.671 93.884 131.187C92.564 124.425 86.9523 117.115 78.5239 112.216Z" fill="white"/>
<path d="M118.699 92.3361C117.627 87.9763 115.687 83.8772 112.996 80.2837C110.305 76.69 106.917 73.6756 103.035 71.4203C99.1534 69.165 94.8567 67.715 90.4021 67.1571C85.9473 66.5991 81.4258 66.9446 77.1075 68.1728C84.3216 69.0557 92.3294 71.7639 100.182 76.3262C108.036 80.8885 114.36 86.5024 118.699 92.3361Z" fill="white"/>
<path d="M108.201 108.324C104.508 102.192 98.182 96.3196 90.3894 91.7927C82.597 87.2656 74.3642 84.6799 67.214 84.5089C60.9235 84.36 56.2023 86.1886 54.2644 89.5249C54.2534 89.5447 54.2379 89.5633 54.2258 89.5832C54.0514 90.209 53.9013 90.8357 53.7645 91.4649C56.4705 90.3967 59.6058 89.8018 63.0921 89.7355C70.8449 89.5899 79.5212 92.0697 87.5279 96.7213C95.5344 101.373 101.992 107.684 105.704 114.489C107.368 117.555 108.407 120.573 108.818 123.457C109.297 123.029 109.768 122.586 110.223 122.126C110.236 122.105 110.243 122.083 110.255 122.061C112.193 118.722 111.444 113.716 108.201 108.324Z" fill="white"/>
<path d="M84.4614 101.997C72.5282 95.0646 59.3413 93.9785 53 98.8167C53.0125 100.331 53.1282 101.843 53.3465 103.341C55.2119 102.776 57.1344 102.42 59.0786 102.28C66.1648 101.747 73.9772 103.721 81.0668 107.842C88.1561 111.963 93.7448 117.774 96.7928 124.189C97.6356 125.947 98.2782 127.793 98.7087 129.694C100.119 129.141 101.49 128.493 102.813 127.755C103.875 119.849 96.3978 108.931 84.4614 101.997Z" fill="white"/>
<path d="M114.339 98.0601C110.604 91.934 104.223 86.0452 96.3753 81.4885C88.5277 76.9317 80.2627 74.3052 73.0895 74.0944C67.6212 73.9366 63.3856 75.262 61.1894 77.766C70.3084 76.221 82.3365 78.8178 93.9948 85.5906C105.653 92.3633 113.871 101.528 117.043 110.214C118.13 107.068 117.184 102.732 114.339 98.0601Z" fill="white"/>
</g>
</g>
<defs>
<clipPath id="clip0_21_300">
<rect width="189" height="68.4567" fill="white" transform="translate(53 65)"/>
</clipPath>
</defs>
</svg>
