<svg width="296" height="198" viewBox="0 0 296 198" fill="none" xmlns="http://www.w3.org/2000/svg">
<path d="M96.8743 78.9998H80.9102V83.0023H92.6309C94.9917 83.0023 96.8743 84.9191 96.8743 87.2586V90.7538C96.8743 93.1215 94.9917 95.01 92.6309 95.01H76.919V91.0075H92.8839V87.0049H81.1631C78.8021 87.0049 76.919 85.0882 76.919 82.7486V79.2534C76.919 76.8857 78.8021 74.9972 81.1631 74.9972H96.8743V78.9998Z" fill="white"/>
<path d="M116.227 74.9972C118.588 74.9972 120.499 76.8857 120.499 79.2534V90.7538C120.499 93.1215 118.588 95.01 116.227 95.01H103.945C101.584 95.01 99.7007 93.1215 99.7007 90.7538V79.2534C99.7007 76.8857 101.584 74.9972 103.945 74.9972H116.227ZM116.48 78.9998H103.692V91.0075H116.48V78.9998Z" fill="white"/>
<path d="M127.606 90.8665H143.177V95.1792H126.061C124.542 95.1792 123.306 93.9389 123.306 92.4168V74.8281H127.606V90.8665Z" fill="white"/>
<path d="M163.319 74.9972C165.231 74.9972 166.777 76.5193 166.777 78.436V95.01H162.757V88.4425H149.969V95.01H145.978V78.436C145.978 76.5193 147.495 74.9972 149.406 74.9972H163.319ZM162.757 78.9998H149.969V84.4399H162.757V78.9998Z" fill="white"/>
<path d="M186.363 74.9972H190.382V92.4168C190.382 93.8544 189.201 95.01 187.768 95.01H184.676C183.692 95.0383 182.821 94.5026 182.371 93.6289L174.614 78.9998H173.574V95.01H169.583V77.6186C169.583 76.1529 170.735 74.9972 172.168 74.9972H175.429C176.385 74.9972 177.284 75.5046 177.733 76.3784L185.491 91.0075H186.363V74.9972Z" fill="white"/>
<path d="M210.53 74.9972C212.441 74.9972 213.987 76.5193 213.987 78.436V95.01H209.967V88.4425H197.179V95.01H193.188V78.436C193.188 76.5193 194.706 74.9972 196.617 74.9972H210.53ZM209.967 78.9998H197.179V84.4399H209.967V78.9998Z" fill="white"/>
<path d="M96.4813 105.333H80.9102V109.336H96.4813V113.338H80.9102V121.343H76.919V101.331H96.4813V105.333Z" fill="white"/>
<path d="M115.816 101.331C118.177 101.331 120.088 103.219 120.088 105.587V117.087C120.088 119.455 118.177 121.343 115.816 121.343H103.533C101.172 121.343 99.2893 119.455 99.2893 117.087V105.587C99.2893 103.219 101.172 101.331 103.533 101.331H115.816ZM116.068 105.333H103.28V117.341H116.068V105.333Z" fill="white"/>
<path d="M139.673 101.331H143.693V114.635C143.665 118.356 140.685 121.343 136.975 121.343H129.583C125.874 121.343 122.894 118.356 122.894 114.635V101.331H126.885V113.817C126.885 115.762 128.459 117.341 130.399 117.341H136.16C138.099 117.341 139.673 115.762 139.673 113.817V101.331Z" fill="white"/>
<path d="M163.279 101.331H167.298V118.75C167.298 120.188 166.118 121.343 164.684 121.343H161.593C160.608 121.372 159.737 120.836 159.287 119.962L151.53 105.333H150.49V121.343H146.499V103.952C146.499 102.486 147.652 101.331 149.085 101.331H152.346C153.301 101.331 154.2 101.838 154.65 102.712L162.407 117.341H163.279V101.331Z" fill="white"/>
<path d="M184.186 101.331C187.896 101.331 190.875 104.347 190.903 108.039V114.635C190.875 118.356 187.896 121.343 184.186 121.343H170.104V101.331H184.186ZM186.884 108.885C186.884 106.912 185.31 105.333 183.371 105.333H174.095V117.341H183.371C185.31 117.341 186.884 115.762 186.884 113.817V108.885Z" fill="white"/>
<path d="M211.051 101.331C212.962 101.331 214.508 102.853 214.508 104.769V121.343H210.489V114.776H197.701V121.343H193.709V104.769C193.709 102.853 195.227 101.331 197.138 101.331H211.051ZM210.489 105.333H197.701V110.773H210.489V105.333Z" fill="white"/>
<path d="M217.315 101.331H237.27V105.333H229.288V121.343H225.297V105.333H217.315V101.331Z" fill="white"/>
<path d="M244.087 121.343H240.096V101.331H244.087V121.343Z" fill="white"/>
<path d="M263.43 101.331C265.791 101.331 267.702 103.219 267.702 105.587V117.087C267.702 119.455 265.791 121.343 263.43 121.343H251.147C248.786 121.343 246.903 119.455 246.903 117.087V105.587C246.903 103.219 248.786 101.331 251.147 101.331H263.43ZM263.683 105.333H250.895V117.341H263.683V105.333Z" fill="white"/>
<path d="M287.288 101.331H291.307V118.75C291.307 120.188 290.127 121.343 288.694 121.343H285.601C284.618 121.372 283.747 120.836 283.297 119.962L275.539 105.333H274.499V121.343H270.509V103.952C270.509 102.486 271.661 101.331 273.094 101.331H276.355C277.31 101.331 278.209 101.838 278.659 102.712L286.416 117.341H287.288V101.331Z" fill="white"/>
<mask id="mask0_19_222" style="mask-type:luminance" maskUnits="userSpaceOnUse" x="4" y="75" width="53" height="47">
<path d="M56.2931 75.5607H4.69263V121.926H56.2931V75.5607Z" fill="white"/>
</mask>
<g mask="url(#mask0_19_222)">
<path d="M56.0272 112.116L47.5092 121.294C47.324 121.494 47.1 121.653 46.851 121.761C46.602 121.87 46.3335 121.926 46.062 121.926H5.68153C5.48885 121.926 5.30038 121.869 5.13925 121.763C4.97813 121.657 4.85138 121.506 4.77458 121.328C4.69778 121.151 4.67428 120.955 4.70695 120.764C4.73963 120.573 4.82706 120.396 4.95851 120.255L13.4831 111.076C13.6678 110.878 13.8911 110.719 14.1393 110.61C14.3875 110.502 14.6552 110.445 14.9259 110.445H55.3042C55.4969 110.445 55.6854 110.502 55.8465 110.608C56.0077 110.714 56.1343 110.865 56.2112 111.042C56.288 111.22 56.3114 111.416 56.2788 111.607C56.2461 111.798 56.1587 111.975 56.0272 112.116ZM47.5092 93.6343C47.324 93.4349 47.1 93.276 46.851 93.1673C46.602 93.0587 46.3335 93.0027 46.062 93.0029H5.68153C5.48885 93.0029 5.30038 93.0595 5.13925 93.1656C4.97813 93.2717 4.85138 93.4229 4.77458 93.6004C4.69778 93.7779 4.67428 93.9741 4.70695 94.1649C4.73963 94.3557 4.82706 94.5327 4.95851 94.6743L13.4831 103.852C13.6678 104.051 13.8911 104.21 14.1393 104.318C14.3875 104.427 14.6552 104.483 14.9259 104.484H55.3042C55.4969 104.484 55.6854 104.427 55.8465 104.321C56.0077 104.215 56.1343 104.064 56.2112 103.886C56.288 103.709 56.3114 103.513 56.2788 103.322C56.2461 103.131 56.1587 102.954 56.0272 102.812L47.5092 93.6343ZM5.68153 87.0417H46.062C46.3335 87.0417 46.602 86.9858 46.851 86.8771C47.1 86.7685 47.324 86.6096 47.5092 86.4102L56.0272 77.2321C56.1587 77.0906 56.2461 76.9135 56.2788 76.7228C56.3114 76.532 56.288 76.3358 56.2112 76.1582C56.1343 75.9807 56.0077 75.8296 55.8465 75.7234C55.6854 75.6173 55.4969 75.5607 55.3042 75.5607H14.9259C14.6552 75.5612 14.3875 75.6175 14.1393 75.7261C13.8911 75.8347 13.6678 75.9933 13.4831 76.1922L4.96071 85.3703C4.82938 85.5117 4.74199 85.6885 4.70924 85.8791C4.67649 86.0696 4.69981 86.2656 4.77634 86.4431C4.85287 86.6206 4.97928 86.7717 5.14007 86.878C5.30086 86.9844 5.48904 87.0412 5.68153 87.0417Z" fill="url(#paint0_linear_19_222)"/>
<path d="M56.0272 112.116L47.5092 121.294C47.324 121.494 47.1 121.653 46.851 121.761C46.602 121.87 46.3335 121.926 46.062 121.926H5.68153C5.48885 121.926 5.30038 121.869 5.13925 121.763C4.97813 121.657 4.85138 121.506 4.77458 121.328C4.69778 121.151 4.67428 120.955 4.70695 120.764C4.73963 120.573 4.82706 120.396 4.95851 120.255L13.4831 111.076C13.6678 110.878 13.8911 110.719 14.1393 110.61C14.3875 110.502 14.6552 110.445 14.9259 110.445H55.3042C55.4969 110.445 55.6854 110.502 55.8465 110.608C56.0077 110.714 56.1343 110.865 56.2112 111.042C56.288 111.22 56.3114 111.416 56.2788 111.607C56.2461 111.798 56.1587 111.975 56.0272 112.116ZM47.5092 93.6343C47.324 93.4349 47.1 93.276 46.851 93.1673C46.602 93.0587 46.3335 93.0027 46.062 93.0029H5.68153C5.48885 93.0029 5.30038 93.0595 5.13925 93.1656C4.97813 93.2717 4.85138 93.4229 4.77458 93.6004C4.69778 93.7779 4.67428 93.9741 4.70695 94.1649C4.73963 94.3557 4.82706 94.5327 4.95851 94.6743L13.4831 103.852C13.6678 104.051 13.8911 104.21 14.1393 104.318C14.3875 104.427 14.6552 104.483 14.9259 104.484H55.3042C55.4969 104.484 55.6854 104.427 55.8465 104.321C56.0077 104.215 56.1343 104.064 56.2112 103.886C56.288 103.709 56.3114 103.513 56.2788 103.322C56.2461 103.131 56.1587 102.954 56.0272 102.812L47.5092 93.6343ZM5.68153 87.0417H46.062C46.3335 87.0417 46.602 86.9858 46.851 86.8771C47.1 86.7685 47.324 86.6096 47.5092 86.4102L56.0272 77.2321C56.1587 77.0906 56.2461 76.9135 56.2788 76.7228C56.3114 76.532 56.288 76.3358 56.2112 76.1582C56.1343 75.9807 56.0077 75.8296 55.8465 75.7234C55.6854 75.6173 55.4969 75.5607 55.3042 75.5607H14.9259C14.6552 75.5612 14.3875 75.6175 14.1393 75.7261C13.8911 75.8347 13.6678 75.9933 13.4831 76.1922L4.96071 85.3703C4.82938 85.5117 4.74199 85.6885 4.70924 85.8791C4.67649 86.0696 4.69981 86.2656 4.77634 86.4431C4.85287 86.6206 4.97928 86.7717 5.14007 86.878C5.30086 86.9844 5.48904 87.0412 5.68153 87.0417Z" fill="white"/>
</g>
<defs>
<linearGradient id="paint0_linear_19_222" x1="9.04832" y1="123.031" x2="51.6148" y2="75.269" gradientUnits="userSpaceOnUse">
<stop offset="0.08" stop-color="#9945FF"/>
<stop offset="0.3" stop-color="#8752F3"/>
<stop offset="0.5" stop-color="#5497D5"/>
<stop offset="0.6" stop-color="#43B4CA"/>
<stop offset="0.72" stop-color="#28E0B9"/>
<stop offset="0.97" stop-color="#19FB9B"/>
</linearGradient>
</defs>
</svg>
